<svg xmlns="http://www.w3.org/2000/svg" xmlns:xlink="http://www.w3.org/1999/xlink" width="32" height="32" viewBox="0 0 32 32">
  <defs>
    <clipPath id="clip-path">
      <rect width="32" height="32" fill="none"/>
    </clipPath>
  </defs>
  <g id="Icon_-_Location" data-name="Icon - Location" clip-path="url(#clip-path)">
    <rect id="Square" width="32" height="32" transform="translate(0 0)" fill="none"/>
    <path id="Icon_-_Location-2" data-name="Icon - Location" d="M163.461-7191.195h-.054a.956.956,0,0,1-.723-.323c-4.721-4.944-11.07-8.922-11.862-16.282-.58-5.394,1.55-11.206,6.5-13.873a12.962,12.962,0,0,1,13.989,1.153c4.248,3.4,5.606,9.424,4.436,14.578-1.425,6.293-7.357,10.026-11.558,14.424a.961.961,0,0,1-.707.323Zm-7.062-27.236c-3.642,3.325-4.409,9.2-2.7,13.681,1.721,4.509,6.311,7.634,9.734,10.97,3.92-3.845,9.172-7.368,10.316-12.988.957-4.7-.533-10.261-4.832-12.843a10.572,10.572,0,0,0-5.431-1.463A10.533,10.533,0,0,0,156.4-7218.431Zm2.732,8.329c.062-2.471,1.53-4.393,4.157-4.362a4.526,4.526,0,0,1,4.451,4.5,4.338,4.338,0,0,1-4.442,4.233h-.014A4.191,4.191,0,0,1,159.132-7210.1Zm3.97-2.328c-1.407.06-1.9,1.069-1.934,2.328a2.141,2.141,0,0,0,2.341,2.315,2.252,2.252,0,0,0,2.2-2.181,2.479,2.479,0,0,0-2.5-2.464Z" transform="translate(-147.729 7223.194)" fill="#1583d8"/>
  </g>
</svg>
