<svg xmlns="http://www.w3.org/2000/svg" xmlns:xlink="http://www.w3.org/1999/xlink" width="32" height="32" viewBox="0 0 32 32">
  <defs>
    <clipPath id="clip-path">
      <rect width="32" height="32" fill="none"/>
    </clipPath>
  </defs>
  <g id="Icon_-_Envelope" data-name="Icon - Envelope" clip-path="url(#clip-path)">
    <rect id="Square" width="32" height="32" fill="none"/>
    <path id="Icon_-_Envelope-2" data-name="Icon - Envelope" d="M2402.938-2481.605a1.037,1.037,0,0,0-.167-.552.947.947,0,0,0-.894-.509c-5.126.065-10.252-.009-15.378-.037-2.486-.013-4.972-.016-7.457.015q-2.014.025-4.028.082a13.693,13.693,0,0,0-3.046.165,1.074,1.074,0,0,0-.779,1.024c.407,6.821.443,13.648.2,20.477a1.078,1.078,0,0,0,1.062,1.061c4.99.192,9.942.25,14.935.223a127.206,127.206,0,0,0,14.742-.479,1.086,1.086,0,0,0,1.062-1.062C2403.013-2468,2403.11-2474.8,2402.938-2481.605Zm-26.922,1.095q1.85-.046,3.7-.063c2.487-.025,4.974-.019,7.461,0,3.938.024,7.877.067,11.816.053a36.747,36.747,0,0,0-4.728,3.964,39.8,39.8,0,0,0-3.172,3.574c-.832,1.055-1.62,2.611-2.828,3.274-1.628.894-3.08-1.56-4.1-2.606q-1.679-1.725-3.446-3.362c-1.832-1.7-3.738-3.3-5.7-4.845C2375.369-2480.513,2375.707-2480.5,2376.016-2480.51Zm11.366,18.731c-4.628.025-9.222-.028-13.842-.188.181-5.707.164-11.413-.106-17.116a89.922,89.922,0,0,1,7.411,6.446c1.3,1.264,2.525,2.594,3.786,3.9a3.772,3.772,0,0,0,3.166,1.488c2.766-.346,4.51-3.986,6.144-5.855a35.639,35.639,0,0,1,6.923-6.127c.1,5.7.055,11.393.179,17.089C2396.5-2461.69,2391.951-2461.8,2387.382-2461.78Z" transform="translate(-2371.186 2486.713)" fill="#1583d8"/>
  </g>
</svg>
