<svg xmlns="http://www.w3.org/2000/svg" width="39.16" height="36.642" viewBox="0 0 39.16 36.642">
  <g id="Social_Buttons_Circle_Button_Google" data-name="Social Buttons / Circle Button / Google" transform="translate(0.004 0.002)">
    <path id="Google" d="M-345.321-1090.091c-6.338-3.4-9.4-9.941-8.542-17.007a1.216,1.216,0,0,1,.027-.146,1.218,1.218,0,0,1,.012-.13c1.769-12.141,15.672-19.044,27.011-15.849,8.874,2.5,12.449,12.756,11.919,21.207-.418,6.645-5.267,11.41-11.363,13.426a24.9,24.9,0,0,1-7.783,1.23A23.979,23.979,0,0,1-345.321-1090.091Zm2.672-1.04c9.613,4,25.993.653,25.686-12.215-.2-8.235-3.541-17.193-12.735-18.333-9.891-1.226-20.544,4.416-22.1,14.793C-352.558-1099.881-349.24-1093.868-342.649-1091.13Zm4.716-4.482c-2.138-.346-4.433-1.6-3.237-4.126,1.163-2.445,3.589-3.033,5.995-2.927a9.856,9.856,0,0,1-1.6-1.913,5.739,5.739,0,0,1-4.066-1.961c-1.786-2.153-1.811-4.978.436-6.771a7.417,7.417,0,0,1,3.7-1.51,4.457,4.457,0,0,1,3.372.962,1.4,1.4,0,0,0,.19-.132,5.609,5.609,0,0,0,.642-.7,1.054,1.054,0,0,1,1.48,0,1.082,1.082,0,0,1,0,1.48,4.735,4.735,0,0,1-1.282,1.169c.411,2.328.549,5.173-1.513,6.648a4.218,4.218,0,0,1-.714.411c.991,1.3,2.416,2.211,2.936,3.921a5.4,5.4,0,0,1-.363,4.262c-.7,1.113-2.138,1.414-3.553,1.414A15.5,15.5,0,0,1-337.933-1095.612Zm-1.35-3.184c-.346,1.179,2.176,1.224,3.007,1.252,1.709.059,2.93.125,2.84-1.929a3.549,3.549,0,0,0-.166-.935,1.221,1.221,0,0,1-.172-.018,12.236,12.236,0,0,0-2.056-.2C-337.3-1100.62-338.853-1100.254-339.283-1098.8Zm3.042-13.981a5.265,5.265,0,0,0-2.543.861c-1.632,1.071-1.646,2.875-.275,4.249,1.256,1.259,3.938,1.514,4.692-.4a7.773,7.773,0,0,0-.072-4.019,2.9,2.9,0,0,0-1.731-.694Zm9.173,6.213q-.089-.9-.15-1.793-.981.027-1.959.077c-1.35.069-1.34-2.023,0-2.093q.925-.048,1.853-.074-.046-1.384-.029-2.772a1.047,1.047,0,0,1,2.092,0q-.017,1.371.029,2.738,1.038-.006,2.074.007a1.047,1.047,0,0,1,0,2.093q-.983-.012-1.968-.008.062.913.151,1.826a.877.877,0,0,1-.944,1A1.113,1.113,0,0,1-327.068-1106.564Z" transform="translate(354 1124)" fill="#1583d8"/>
  </g>
</svg>
